<svg width="124" height="60" viewBox="0 0 124 60" fill="none" xmlns="http://www.w3.org/2000/svg">
<rect width="124" height="60" rx="30" fill="#F5F5F5"/>
<path d="M37.3494 42C40.8947 42 43.7687 39.098 43.7687 35.5182C43.7687 31.9384 40.8947 29.0364 37.3494 29.0364C33.8041 29.0364 30.93 31.9384 30.93 35.5182C30.93 39.098 33.8041 42 37.3494 42Z" fill="#BDBDBD"/>
<path d="M25.2784 38.5353C26.9287 38.5353 28.2665 37.1845 28.2665 35.5182C28.2665 33.8518 26.9287 32.501 25.2784 32.501C23.6281 32.501 22.2903 33.8518 22.2903 35.5182C22.2903 37.1845 23.6281 38.5353 25.2784 38.5353Z" fill="#BDBDBD"/>
<path d="M37.3494 27.5034C39.6322 27.5034 41.4827 25.6349 41.4827 23.3299C41.4827 21.0249 39.6322 19.1564 37.3494 19.1564C35.0667 19.1564 33.2161 21.0249 33.2161 23.3299C33.2161 25.6349 35.0667 27.5034 37.3494 27.5034Z" fill="#BDBDBD"/>
<path d="M25.2785 28.6598C28.1938 28.6598 30.557 26.2735 30.557 23.3299C30.557 20.3863 28.1938 18 25.2785 18C22.3633 18 20 20.3863 20 23.3299C20 26.2735 22.3633 28.6598 25.2785 28.6598Z" fill="#BDBDBD"/>
<path d="M60.4642 38.4998H63.7945L57.6209 21.5311H55.2032L49.0296 38.4998H52.3555L53.5358 35.2612H59.2751L60.4554 38.4998L54.4617 32.7092L56.4055 27.3705L58.3449 32.7092H54.4617L60.4642 38.4998ZM72.0567 26.9008L68.9853 35.3188L65.9138 26.9008H62.7853L67.002 38.4866H70.951L75.1721 26.9008H72.0567ZM76.4884 26.9008H79.6213V38.4866H76.4884V26.9008Z" fill="#BDBDBD"/>
<path d="M78.0768 25.5983C79.1916 25.5983 80.0952 24.6859 80.0952 23.5603C80.0952 22.4347 79.1916 21.5223 78.0768 21.5223C76.9621 21.5223 76.0584 22.4347 76.0584 23.5603C76.0584 24.6859 76.9621 25.5983 78.0768 25.5983Z" fill="#BDBDBD"/>
<path d="M90.6874 29.4661V26.9009H86.9359V23.7065H83.8074V26.9009H81.3151V29.4528H83.7942V34.4327C83.7942 37.0068 85.0667 38.7214 88.318 38.7214C89.1244 38.7075 89.922 38.55 90.6743 38.2562L90.2925 35.753C89.8447 35.8753 89.383 35.9378 88.9191 35.9391C87.9889 35.9391 86.9227 35.5359 86.9227 34.2378V29.4661H90.6874ZM97.8571 35.8505C97.2536 35.8331 96.6687 35.6365 96.1752 35.2853C95.6818 34.9341 95.3018 34.4439 95.0828 33.8758C94.8637 33.3078 94.8152 32.6872 94.9435 32.0916C95.0717 31.4959 95.371 30.9517 95.8038 30.5267C96.2366 30.1018 96.7839 29.8151 97.3772 29.7025C97.9705 29.5898 98.5835 29.6562 99.1396 29.8933C99.6957 30.1304 100.17 30.5278 100.504 31.0357C100.838 31.5436 101.016 32.1396 101.016 32.7491C101.001 33.5823 100.661 34.3757 100.069 34.9566C99.4774 35.5375 98.6823 35.8588 97.8571 35.8505ZM97.8571 26.6173C96.6741 26.6435 95.5251 27.0216 94.554 27.7043C93.5829 28.3869 92.833 29.3438 92.3981 30.4549C91.9633 31.5661 91.8628 32.7821 92.1094 33.9506C92.356 35.1192 92.9387 36.1882 93.7844 37.0239C94.6301 37.8595 95.7012 38.4245 96.8635 38.6481C98.0259 38.8718 99.2277 38.7441 100.319 38.281C101.409 37.818 102.34 37.0401 102.995 36.0451C103.65 35.05 104 33.8819 104 32.6871C103.981 31.06 103.324 29.5069 102.172 28.3688C101.021 27.2307 99.4685 26.6008 97.8571 26.6173Z" fill="#BDBDBD"/>
</svg>
