<svg width="50" height="50" viewBox="0 0 50 50" fill="none" xmlns="http://www.w3.org/2000/svg">
<rect width="50" height="50" rx="25" fill="#F5F5F5"/>
<path d="M30.5481 13.005L27.6699 13C24.4362 13 22.3465 15.3183 22.3465 18.9064V21.6297H19.4526C19.2025 21.6297 19 21.8489 19 22.1193V26.065C19 26.3354 19.2027 26.5544 19.4526 26.5544H22.3465V36.5106C22.3465 36.781 22.549 37 22.7991 37H26.5749C26.825 37 27.0275 36.7808 27.0275 36.5106V26.5544H30.4112C30.6613 26.5544 30.8638 26.3354 30.8638 26.065L30.8652 22.1193C30.8652 21.9895 30.8174 21.8651 30.7326 21.7733C30.6479 21.6814 30.5324 21.6297 30.4123 21.6297H27.0275V19.3212C27.0275 18.2116 27.272 17.6483 28.6087 17.6483L30.5477 17.6475C30.7975 17.6475 31 17.4283 31 17.1582V13.4944C31 13.2245 30.7977 13.0055 30.5481 13.005Z" fill="#17A8FC"/>
</svg>
