<svg width="80" height="80" viewBox="0 0 80 80" fill="none" xmlns="http://www.w3.org/2000/svg">
<rect width="80" height="80" rx="40" fill="#F5F5F5"/>
<path d="M45.6508 31.7593C46.0701 31.3998 46.1187 30.7685 45.7593 30.3492C45.3998 29.9299 44.7685 29.8813 44.3492 30.2407L45.6508 31.7593ZM35 39.5714L34.3492 38.8122C34.1338 38.9968 34.007 39.2642 34.0003 39.5477C33.9936 39.8313 34.1076 40.1044 34.314 40.299L35 39.5714ZM44.314 49.7276C44.7158 50.1065 45.3487 50.0878 45.7276 49.686C46.1065 49.2842 46.0878 48.6513 45.686 48.2724L44.314 49.7276ZM44.3492 30.2407L34.3492 38.8122L35.6508 40.3307L45.6508 31.7593L44.3492 30.2407ZM34.314 40.299L44.314 49.7276L45.686 48.2724L35.686 38.8438L34.314 40.299Z" fill="#45ADBF"/>
</svg>
