<svg width="124" height="60" viewBox="0 0 124 60" fill="none" xmlns="http://www.w3.org/2000/svg">
<rect width="124" height="60" rx="30" fill="#F5F5F5"/>
<path d="M28.9647 40.5044H23.7353C21.6988 40.5044 20 39.2337 20 37.2038V15.6001C20 15.264 20.263 15 20.5976 15H43.3083C43.643 15 43.906 15.264 43.906 15.6001V37.2038C43.906 39.2337 42.2072 40.5044 40.1707 40.5044H37.9295C35.751 40.5044 34.3511 40.9184 32.5506 42.7548C32.1577 43.1343 31.6093 43.7569 30.9071 44.6226C30.697 44.8483 30.4078 44.9831 30.1005 44.9985C29.7932 45.0139 29.492 44.9087 29.2606 44.7051C29.017 44.4876 28.9647 44.186 28.9647 43.8605V40.5044ZM22.9882 18.0005V36.6037C22.9882 37.1483 23.3035 37.5039 23.8847 37.5039H31.5047V40.0543C33.4576 38.314 35.3715 37.5039 37.9295 37.5039H40.0213C40.6025 37.5039 40.9177 37.1483 40.9177 36.6037V18.0005H22.9882Z" fill="#BDBDBD"/>
<path d="M55.745 26.4713C56.0557 26.1662 56.48 25.8963 57.0178 25.6617C57.5675 25.427 58.1472 25.3097 58.7567 25.3097C59.3662 25.3097 59.8382 25.4094 60.1728 25.6089C60.5075 25.8083 60.7764 26.1134 60.9795 26.5241C61.3022 26.1955 61.7384 25.9139 62.2882 25.6793C62.8499 25.4329 63.4116 25.3097 63.9732 25.3097C65.001 25.3097 65.6942 25.5737 66.0527 26.1017C66.4232 26.6179 66.6084 27.3571 66.6084 28.3192V34.4967H64.0987V28.7592C64.0987 28.0083 63.9374 27.5624 63.6147 27.4216C63.4594 27.3512 63.2502 27.316 62.9873 27.316C62.318 27.316 61.7504 27.5331 61.2843 27.9672C61.2962 28.0494 61.3022 28.1726 61.3022 28.3368V34.4967H58.7925V28.7592C58.7925 28.0083 58.6312 27.5624 58.3085 27.4216C58.1531 27.3512 57.944 27.316 57.6811 27.316C57.0118 27.316 56.4441 27.5331 55.9781 27.9672V34.4967H53.4684V25.4681H55.5299L55.745 26.4713Z" fill="#BDBDBD"/>
<path d="M76.0725 30.0088C76.0725 31.6397 75.702 32.8365 74.961 33.5991C74.2201 34.3501 73.2461 34.7255 72.039 34.7255C70.832 34.7255 69.8699 34.3501 69.1529 33.5991C68.4478 32.8482 68.0952 31.6573 68.0952 30.0264C68.0952 28.3955 68.4597 27.2046 69.1887 26.4537C69.9297 25.691 70.8977 25.3097 72.0928 25.3097C74.7459 25.3097 76.0725 26.8761 76.0725 30.0088ZM73.6345 29.9912C73.6345 28.9118 73.503 28.1784 73.2401 27.7912C72.9772 27.404 72.5888 27.2105 72.0749 27.2105C71.5729 27.2105 71.1845 27.404 70.9096 27.7912C70.6467 28.1784 70.5153 28.9235 70.5153 30.0264C70.5153 31.9037 71.0351 32.8423 72.0749 32.8423C72.5649 32.8423 72.9473 32.637 73.2222 32.2264C73.497 31.804 73.6345 31.0589 73.6345 29.9912Z" fill="#BDBDBD"/>
<path d="M80.8554 27.2105C80.0428 27.2105 79.6365 27.4744 79.6365 28.0024C79.6365 28.284 79.7739 28.5246 80.0488 28.724C80.3236 28.9235 80.6523 29.0995 81.0347 29.252C81.4291 29.3928 81.8175 29.5571 82.1999 29.7448C82.5943 29.9208 82.9289 30.1789 83.2038 30.5192C83.4787 30.8595 83.6161 31.276 83.6161 31.7688C83.6161 32.6488 83.3114 33.3645 82.7019 33.9159C82.0924 34.4557 81.196 34.7255 80.0129 34.7255C79.4751 34.7255 78.9074 34.6668 78.3099 34.5495C77.7243 34.4322 77.2941 34.2973 77.0192 34.1447L77.6287 32.3848C78.5609 32.6898 79.3974 32.8423 80.1384 32.8423C80.8913 32.8423 81.2678 32.5549 81.2678 31.98C81.2678 31.7336 81.1303 31.5106 80.8554 31.3112C80.5806 31.1117 80.2459 30.9298 79.8516 30.7656C79.4691 30.5896 79.0807 30.4019 78.6864 30.2024C78.3039 30.0029 77.9753 29.7213 77.7004 29.3576C77.4255 28.9939 77.2881 28.5715 77.2881 28.0904C77.2881 27.187 77.5928 26.4947 78.2023 26.0137C78.8118 25.5326 79.6843 25.2921 80.8196 25.2921C81.9549 25.2921 82.8453 25.4739 83.4906 25.8377L82.8991 27.58C82.0744 27.3336 81.3932 27.2105 80.8554 27.2105Z" fill="#BDBDBD"/>
<path d="M84.8162 33.1591C84.8162 32.7602 84.9596 32.42 85.2464 32.1384C85.5333 31.8568 85.8798 31.716 86.2862 31.716C86.6925 31.716 87.0391 31.8568 87.3259 32.1384C87.6127 32.42 87.7561 32.7602 87.7561 33.1591C87.7561 33.5463 87.6127 33.8866 87.3259 34.1799C87.0391 34.4733 86.6925 34.6199 86.2862 34.6199C85.8798 34.6199 85.5333 34.4791 85.2464 34.1975C84.9596 33.9042 84.8162 33.5581 84.8162 33.1591Z" fill="#BDBDBD"/>
<path d="M93.98 27.2808C93 27.2808 92.3128 27.5566 91.9184 28.108V34.4967H89.4087V25.4681H91.4882L91.6854 26.6121C92.3785 25.7203 93.2629 25.2745 94.3385 25.2745C94.6373 25.2745 94.9121 25.3038 95.1631 25.3625L94.7508 27.3864C94.4879 27.316 94.2309 27.2808 93.98 27.2808Z" fill="#BDBDBD"/>
<path d="M101.723 33.6695C100.803 34.3735 99.8231 34.7255 98.7834 34.7255C97.7556 34.7255 97.0505 34.4674 96.6681 33.9511C96.2976 33.4231 96.1124 32.6781 96.1124 31.716V25.4681H98.6221V31.276C98.6221 31.7453 98.6938 32.1032 98.8372 32.3496C98.9806 32.5959 99.3332 32.7191 99.8948 32.7191C100.468 32.7191 101 32.5373 101.49 32.1736V25.4681H104V34.7255H101.938L101.723 33.6695Z" fill="#BDBDBD"/>
</svg>
