<svg width="120" height="60" viewBox="0 0 120 60" fill="none" xmlns="http://www.w3.org/2000/svg">
<rect width="120" height="60" rx="30" fill="#F5F5F5"/>
<path fill-rule="evenodd" clip-rule="evenodd" d="M27.1111 20C25.6268 20 23.867 21.4333 22.4155 23.8431C20.9025 26.3387 20 29.4282 20 32.1112C20 36.039 22.1944 40 27.1115 40C32.0227 40 34.223 36.039 34.223 32.1112C34.223 29.4282 33.3208 26.3387 31.8152 23.8431C30.3501 21.4333 28.5905 20 27.1111 20ZM65.5113 25.893H70.4893V38.9289H75.823V25.893H80.799V21.0709H65.5113V25.8923V25.893ZM92.1774 25.893H100V21.0709H92.1774C84.9907 21.0709 81.1525 24.66 81.1525 29.9993C81.1525 35.3385 84.9907 38.9289 92.1774 38.9289H100V34.107H92.1774C88.8512 34.107 86.6649 32.9129 86.6649 29.9999C86.6649 27.0869 88.8512 25.893 92.1774 25.893ZM54.6632 21.0709L51.8207 31.7296L48.9781 21.0709H39.5564V38.9289H44.888V24.4037L48.7627 38.9289H54.8786L58.7554 24.3949V38.9289H64.089V21.0709H54.6632Z" fill="#BDBDBD"/>
</svg>
