<svg width="80" height="80" viewBox="0 0 80 80" fill="none" xmlns="http://www.w3.org/2000/svg">
<rect width="80" height="80" rx="40" transform="matrix(-1 0 0 1 80 0)" fill="#F5F5F5"/>
<path d="M34.3492 31.7593C33.9299 31.3998 33.8813 30.7685 34.2407 30.3492C34.6002 29.9299 35.2315 29.8813 35.6508 30.2407L34.3492 31.7593ZM45 39.5714L45.6508 38.8122C45.8662 38.9968 45.993 39.2642 45.9997 39.5477C46.0064 39.8313 45.8924 40.1044 45.686 40.299L45 39.5714ZM35.686 49.7276C35.2842 50.1065 34.6513 50.0878 34.2724 49.686C33.8935 49.2842 33.9122 48.6513 34.314 48.2724L35.686 49.7276ZM35.6508 30.2407L45.6508 38.8122L44.3492 40.3307L34.3492 31.7593L35.6508 30.2407ZM45.686 40.299L35.686 49.7276L34.314 48.2724L44.314 38.8438L45.686 40.299Z" fill="#45ADBF"/>
</svg>
