<svg width="50" height="50" viewBox="0 0 50 50" fill="none" xmlns="http://www.w3.org/2000/svg">
<rect width="50" height="50" rx="25" fill="#F5F5F5"/>
<path d="M36.5256 17.5452C35.6231 16.4477 33.957 16 30.7751 16H19.2247C15.9699 16 14.2756 16.4766 13.3765 17.645C12.5 18.7842 12.5 20.4628 12.5 22.786V27.214C12.5 31.7148 13.54 34 19.2247 34H30.7752C33.5345 34 35.0635 33.605 36.0527 32.6364C37.0672 31.6432 37.5 30.0216 37.5 27.214V22.786C37.5 20.336 37.4322 18.6475 36.5256 17.5452ZM28.5501 25.6114L23.3051 28.4158C23.1878 28.4785 23.0596 28.5096 22.9315 28.5096C22.7865 28.5096 22.6419 28.4697 22.5137 28.3903C22.2724 28.2408 22.1251 27.9732 22.1251 27.6846V22.0936C22.1251 21.8055 22.272 21.5382 22.5128 21.3885C22.7537 21.2389 23.0533 21.2287 23.3032 21.3615L28.5482 24.1479C28.8151 24.2896 28.9827 24.5715 28.9831 24.879C28.9834 25.1867 28.8165 25.469 28.5501 25.6114Z" fill="#FF0000"/>
</svg>
