<svg width="110" height="60" viewBox="0 0 110 60" fill="none" xmlns="http://www.w3.org/2000/svg">
<rect width="110" height="60" rx="30" fill="#F5F5F5"/>
<path d="M86.9218 37.4075C88.2981 37.4075 89.2744 37.1601 90 36.6419V34.247C89.2489 34.7652 88.348 35.0865 87.0965 35.0865C84.9697 35.0865 84.0938 33.4567 84.0938 30.8888C84.0938 28.1973 85.17 26.8149 87.1221 26.8149C88.2731 26.8149 89.3992 27.21 90 27.5805V25.0865C89.3743 24.7406 88.2731 24.4938 86.7964 24.4938C82.9927 24.4938 81.015 27.1854 81.015 30.9627C81.015 35.1111 82.9422 37.4075 86.9218 37.4075ZM68.3018 36.3206V33.9257C67.376 34.543 65.8244 35.0865 64.3727 35.0865C62.1948 35.0865 61.3694 34.074 61.244 31.9998H68.4266V30.4444C68.4266 26.1237 66.4995 24.4938 63.5217 24.4938C59.8927 24.4938 58.1652 27.2346 58.1652 30.9873C58.1652 35.3087 60.3182 37.4069 64.1219 37.4069C66.0241 37.4069 67.4259 36.9133 68.3018 36.3206ZM41.0225 24.7406V29.6541H37.0428V24.7406H34.0651V37.1601H37.0428V31.9758H41.0225V37.1607H44.0008V24.7418H41.0225V24.7406ZM57.4402 34.8403H56.1133V24.7406H47.4296V25.8024C47.4296 28.8392 47.23 32.7655 46.1788 34.8397H45.2523V40H48.0055V37.1601H54.6877V40H57.4409V34.8397L57.4402 34.8403ZM77.8121 37.1607H81.1903L76.4103 30.4697L80.6151 24.7412H77.6118L73.4069 30.4697V24.7412H70.4292V37.1607H73.4069V31.0618L77.8121 37.1601V37.1607ZM63.4712 26.8155C64.9479 26.8155 65.3983 28.0255 65.3983 29.5809V29.8277H61.244C61.3195 27.852 62.0444 26.8155 63.4712 26.8155ZM53.1355 34.8403H48.9307C49.7567 32.9636 49.9819 29.5809 49.9819 27.4328V27.0623H53.1349L53.1355 34.8403Z" fill="#BDBDBD"/>
<path d="M31.5622 37.16H28.5339V22.321H27.1826C24.7052 22.321 23.4038 23.5551 23.4038 25.3825C23.4038 27.4561 24.3047 28.4194 26.1564 29.6541L27.683 30.6665L23.2784 37.16H20L23.9541 31.3577C21.677 29.7525 20.4005 28.1972 20.4005 25.5555C20.4005 22.2466 22.7282 20 27.1577 20H31.5622V37.16Z" fill="#BDBDBD"/>
</svg>
